<svg height="542" width="720" xmlns="http://www.w3.org/2000/svg">
<rect height="542" fill="#555" width="720"></rect>
<text fill="#7f7" font-family="Courier New" font-size="12" xml:space="preserve">
<tspan x="10" y="26">4 megabytes installed</tspan>
<tspan x="10" y="42"></tspan>
<tspan x="10" y="58">node_modules</tspan>
<tspan x="10" y="74">└─┬ browserify-ngannotate@2.0.0 </tspan>
<tspan x="10" y="90">  ├── clone@1.0.2 </tspan>
<tspan x="10" y="106">  ├── defaults@1.0.3 </tspan>
<tspan x="10" y="122">  ├─┬ ng-annotate@1.2.1 </tspan>
<tspan x="10" y="138">  │ ├── acorn@2.6.4 </tspan>
<tspan x="10" y="154">  │ ├── alter@0.2.0 </tspan>
<tspan x="10" y="170">  │ ├── convert-source-map@1.1.3 </tspan>
<tspan x="10" y="186">  │ ├─┬ optimist@0.6.1 </tspan>
<tspan x="10" y="202">  │ │ ├── minimist@0.0.10 </tspan>
<tspan x="10" y="218">  │ │ └── wordwrap@0.0.3 </tspan>
<tspan x="10" y="234">  │ ├─┬ ordered-ast-traverse@1.1.1 </tspan>
<tspan x="10" y="250">  │ │ └── ordered-esprima-props@1.1.0 </tspan>
<tspan x="10" y="266">  │ ├── simple-fmt@0.1.0 </tspan>
<tspan x="10" y="282">  │ ├── simple-is@0.2.0 </tspan>
<tspan x="10" y="298">  │ ├── source-map@0.5.6 </tspan>
<tspan x="10" y="314">  │ ├── stable@0.1.6 </tspan>
<tspan x="10" y="330">  │ ├── stringmap@0.2.2 </tspan>
<tspan x="10" y="346">  │ ├── stringset@0.2.1 </tspan>
<tspan x="10" y="362">  │ └── tryor@0.1.2 </tspan>
<tspan x="10" y="378">  └─┬ through2@2.0.3 </tspan>
<tspan x="10" y="394">    ├─┬ readable-stream@2.2.9 </tspan>
<tspan x="10" y="410">    │ ├── buffer-shims@1.0.0 </tspan>
<tspan x="10" y="426">    │ ├── core-util-is@1.0.2 </tspan>
<tspan x="10" y="442">    │ ├── inherits@2.0.3 </tspan>
<tspan x="10" y="458">    │ ├── isarray@1.0.0 </tspan>
<tspan x="10" y="474">    │ ├── process-nextick-args@1.0.7 </tspan>
<tspan x="10" y="490">    │ ├── string_decoder@1.0.0 </tspan>
<tspan x="10" y="506">    │ └── util-deprecate@1.0.2 </tspan>
<tspan x="10" y="522">    └── xtend@4.0.1</tspan>
</text>
</svg>
